Coordinates
version=1
nRows=14
nColumns=24
inDegrees=yes

Units are S.I. units (second, meters, Newtons, ...)
Angles are in degrees.

endheader
time	pelvis_tilt	pelvis_list	pelvis_rotation	pelvis_tx	pelvis_ty	pelvis_tz	hip_flexion_r	hip_adduction_r	hip_rotation_r	knee_angle_r	ankle_angle_r	subtalar_angle_r	mtp_angle_r	hip_flexion_l	hip_adduction_l	hip_rotation_l	knee_angle_l	ankle_angle_l	subtalar_angle_l	mtp_angle_l	lumbar_extension	lumbar_bending	lumbar_rotation
      3.48500000	     13.47586279	      7.64291003	     -7.12041799	      0.56236761	      0.99657746	     -0.01048000	    -13.53909726	    -10.55524299	     -4.27424038	    -36.06596313	      1.61483845	     -6.03835010	     27.55047614	      5.27174113	      8.13639025	    -24.87334979	    -11.13850354	     -5.65340586	      8.56825707	     45.96904273	    -28.32979273	    -12.49569628	     28.70946609
      3.49000000	     13.57207943	      7.75318322	     -7.19914524	      0.56717914	      0.99710734	     -0.01097263	    -12.83880509	    -10.78626504	     -3.83351171	    -37.64974648	      0.65588649	     -6.36366870	     27.71642339	      5.07385534	      8.28921185	    -24.76161631	    -11.45843353	     -5.41662481	      8.21060756	     45.74584319	    -28.41787014	    -12.66696825	     28.76664253
      3.49500000	     13.50542861	      7.89878046	     -7.26229938	      0.57188683	      0.99735983	     -0.01149370	    -11.88511435	    -11.03302076	     -3.38110928	    -39.31740444	     -0.26484383	     -6.61344398	     28.05781361	      5.06863191	      8.45538896	    -24.67568511	    -11.79452256	     -5.15731783	      7.96408487	     45.37728372	    -28.33487967	    -12.85843880	     28.78197486
      3.50000000	     13.51036519	      8.04128829	     -7.29459682	      0.57662458	      0.99768851	     -0.01208266	    -11.03429535	    -11.28381828	     -3.00710495	    -40.89372006	     -1.35471373	     -6.88683373	     30.00357567	      4.96019870	      8.64043165	    -24.57766379	    -12.11826909	     -4.65857065	      8.00173615	     43.43633471	    -28.32944669	    -13.02972349	     28.79169779
      3.50500000	     13.51080422	      8.21229556	     -7.33780198	      0.58127444	      0.99797901	     -0.01269382	    -10.13684576	    -11.54792163	     -2.59326931	    -42.50403534	     -2.13963492	     -7.06773598	     30.01922948	      4.82055735	      8.89033890	    -24.39065865	    -12.29716953	     -4.48588665	      7.65499845	     43.25386968	    -28.32653366	    -13.23109871	     28.72801315
      3.51000000	     13.44805879	      8.38036213	     -7.37794630	      0.58585086	      0.99814404	     -0.01331818	     -9.14497085	    -11.79337140	     -2.16024237	    -44.10452800	     -2.82709183	     -7.14725731	     30.13238231	      4.74374202	      9.13540175	    -24.19155614	    -12.46168671	     -4.25591887	      7.32733667	     42.90993296	    -28.25488070	    -13.42081758	     28.71766175
      3.51500000	     13.36357790	      8.53554340	     -7.39420526	      0.59036859	      0.99826988	     -0.01400615	     -8.13103478	    -12.01403996	     -1.75275477	    -45.65604701	     -3.44180961	     -7.14183984	     30.35410079	      4.67869933	      9.37699092	    -23.95541025	    -12.60807520	     -3.96609333	      7.01110989	     42.28811238	    -28.16513055	    -13.57922894	     28.72503664
      3.52000000	     13.28883202	      8.73381212	     -7.39105939	      0.59491239	      0.99839276	     -0.01469775	     -7.14082129	    -12.26568086	     -1.37510307	    -47.14691914	     -3.93353505	     -7.19474968	     30.84815222	      4.56592638	      9.67542057	    -23.70207601	    -12.68299731	     -3.62528456	      6.96688195	     40.73529392	    -28.08931518	    -13.77576987	     28.56941244
      3.52500000	     13.36330304	      8.90924947	     -7.45034534	      0.59946350	      0.99873325	     -0.01536005	     -6.33312335	    -12.50678063	     -0.96037370	    -48.53410224	     -4.24294481	     -7.21003802	     30.87997037	      4.23119478	     10.01212926	    -23.38947545	    -12.59765863	     -3.51984729	      6.46067187	     40.45586883	    -28.16220949	    -13.97393285	     28.51265760
      3.53000000	     13.23361221	      9.07882251	     -7.42948880	      0.60387034	      0.99876430	     -0.01608436	     -5.27955954	    -12.69606093	     -0.58202782	    -49.93051169	     -4.45126444	     -7.13656434	     31.04516381	      4.15692870	     10.29311068	    -23.03738418	    -12.61689787	     -3.20200339	      6.23591647	     39.26158082	    -28.03468615	    -14.12507547	     28.39936459
      3.53500000	     13.26152874	      9.24155486	     -7.45210583	      0.60833537	      0.99903892	     -0.01682819	     -4.43554638	    -12.90396779	     -0.21207800	    -51.20391496	     -4.47469553	     -6.97581316	     31.10535245	      3.85174603	     10.62872551	    -22.61344367	    -12.48982173	     -3.07714170	      5.65871501	     38.90496957	    -28.06690531	    -14.28337250	     28.33118316
      3.54000000	     13.17081614	      9.40931990	     -7.44074044	      0.61273478	      0.99913632	     -0.01754050	     -3.45149675	    -13.07708555	      0.14822005	    -52.45262498	     -4.40592951	     -6.91050075	     31.17548255	      3.68805336	     10.93493557	    -22.19248907	    -12.40281869	     -2.86716291	      5.32811237	     37.98704483	    -27.97795313	    -14.43287287	     28.18174219
      3.54500000	     13.17572848	      9.54598718	     -7.44843454	      0.61715644	      0.99939068	     -0.01825760	     -2.60733393	    -13.22653882	      0.49668730	    -53.59246632	     -4.15709814	     -6.75921010	     31.25358419	      3.38921824	     11.23995226	    -21.72113401	    -12.25191039	     -2.73920737	      4.78385401	     37.50128083	    -27.98735813	    -14.55587732	     28.07687737
      3.55000000	     13.14863033	      9.68677751	     -7.44292105	      0.62154681	      0.99960872	     -0.01895958	     -1.72824260	    -13.36734626	      0.82144098	    -54.67478765	     -3.91747893	     -6.65798453	     31.32595153	      3.13050010	     11.53528979	    -21.25112921	    -12.12154379	     -2.55371776	      4.37386354	     36.66338835	    -27.96608220	    -14.67876977	     27.95176459
